<?xml version="1.0" encoding="utf-8"?>
<!-- Generator: Adobe Illustrator 15.1.0, SVG Export Plug-In . SVG Version: 6.00 Build 0)  -->
<!DOCTYPE svg PUBLIC "-//W3C//DTD SVG 1.1//EN" "http://www.w3.org/Graphics/SVG/1.1/DTD/svg11.dtd">
<svg version="1.1" id="Layer_1" xmlns="http://www.w3.org/2000/svg" xmlns:xlink="http://www.w3.org/1999/xlink" x="0px" y="0px"
	 width="176px" height="208px" viewBox="0 0 176 208" enable-background="new 0 0 176 208" xml:space="preserve">
<g id="Layer_2">
	<path fill-rule="evenodd" clip-rule="evenodd" fill="#FFFFFF" d="M140.899,140.832c0,2.173-2.548,3.936-5.691,3.936H32.761
		c-3.143,0-5.691-1.763-5.691-3.936V69.973c0-2.174,2.549-3.937,5.691-3.937h102.447c3.144,0,5.691,1.763,5.691,3.937V140.832z"/>
</g>
<path fill-rule="evenodd" clip-rule="evenodd" fill="#B006CE" d="M53.58,93.535c0.668,0.002,1.248-0.085,1.95-0.05
	c-0.831-2.022-0.104-3.722,1.5-4.15c2.064-0.551,4.097,1.62,3,3.8c-0.214,0.425-0.594,0.628-0.85,1.1
	c0.854,0.662,1.875,1.159,2.75,1.8c0.654-0.576,1.145-1.327,1.4-2.35c0.274-1.097,0.232-2.136,0.95-2.8
	c1.558-1.441,4.169-0.453,4.45,1.4c0.22,1.456-0.703,2.737-1.8,3.05c-0.783,0.224-1.594,0.187-2.35,0.5
	c-0.675,0.279-1.152,0.626-1.7,1.1c0.588,0.979,1.234,1.899,1.8,2.9c0.709-0.638,1.25-1.35,2.6-1.25
	c3.131,0.231,3.092,5.151-0.05,5.2c-0.723,0.011-1.084-0.194-1.75-0.4c-0.088,0.74-0.208,2.436,0.45,2.85
	c0.549,0.345,1.99,0.632,2.7,0.7c0.321,0.031,0.649,0.025,0.95,0c1.133-0.1,2.003-0.844,3-0.85c1.054-0.008,2.043,0.723,2.399,1.5
	c1.217,2.65-2.185,4.989-4.2,3.1c-0.283-0.266-0.549-0.813-0.75-1.051c-0.67-0.793-1.76-1.402-3.05-1.75
	c-0.544-0.146-1.146-0.378-1.7-0.199c-0.669,0.215-0.95,1.012-1.3,1.6c-0.393,0.662-0.71,1.129-1.05,1.8
	c0.974,1.652,4.085,0.963,5.25,2.45c1.258,1.607,0.202,4.26-1.95,4.3c-0.89,0.018-1.641-0.365-2.05-0.8
	c-0.647-0.686-0.602-1.759-0.9-2.8c-0.286-0.998-0.704-1.692-1.35-2.3c-0.639,0.444-1.272,0.895-1.9,1.35
	c1.095,0.748,2.458,1.313,2.15,3.351c-0.402,2.661-4.804,2.827-5.2-0.051c-0.107-0.776,0.172-1.348,0.4-2.199
	c-1.113-0.014-2.479,0.154-3.75,0.149c-0.665,1.341-0.805,2.934-0.35,4.4c0.218,0.703,0.66,1.219,0.55,2.2
	c-0.287,2.556-3.955,2.967-5,0.85c-0.455-0.921-0.259-2.14,0.25-2.8c0.487-0.633,1.349-0.987,1.85-1.601
	c0.766-0.937,0.967-1.918,1.35-3.35c-1.686-0.515-3.123-1.278-4.3-2.3c-0.59,0.499-0.996,1.045-1.3,1.85
	c-0.395,1.043-0.266,2.289-0.85,3.05c-1.336,1.741-4.387,0.894-4.7-1.1c-0.201-1.28,0.342-2.104,0.85-2.55
	c0.893-0.784,2.528-0.599,3.65-1.15c0.54-0.265,0.836-0.576,1.3-0.95c-0.559-1.073-1.24-2.026-1.85-3.05
	c-0.867,0.852-1.287,2.039-2.9,2.051c-2.378,0.017-3.533-2.928-1.85-4.551c1.024-0.988,2.572-0.789,3.9-0.05
	c0.01-1.207,0.627-3.111-0.3-3.7c-0.407-0.258-1.072-0.312-1.45-0.4c-0.787-0.182-1.563-0.401-2.4-0.3
	c-0.849,0.103-1.452,0.64-2.35,0.8c-1.679,0.299-3.082-1.006-3.1-2.5c-0.027-2.226,2.66-3.687,4.4-2.1
	c0.555,0.506,0.595,0.885,1,1.3c0.655,0.671,1.774,1.26,3.05,1.6c0.473,0.125,1.023,0.268,1.45,0.15c1.089-0.301,1.31-2.05,2-2.85
	c-1.84-0.168-3.401-0.748-3.55-2.55c-0.11-1.325,0.769-2.649,2.1-2.85c2.274-0.344,3.229,1.397,3.3,3.55
	c1.083-0.583,2.299-1.467,3.8-1.8c-0.339-1.761-0.829-3.017-1.95-4c-0.649-0.57-1.537-0.973-1.7-2.05
	c-0.257-1.699,0.788-2.912,2.15-3.1c1.843-0.254,3.348,1.128,3.05,3.1c-0.095,0.627-0.607,1.253-0.75,2.05
	C52.731,91.226,53.109,92.505,53.58,93.535z"/>
<g>
	<path fill-rule="evenodd" clip-rule="evenodd" d="M115.798,75.239c0.267,0,0.533,0,0.8,0c4.624,0.302,7.286,5.682,4.8,9.5
		c-2.468,3.79-8.688,3.504-10.7-0.7C108.609,79.672,111.814,75.662,115.798,75.239z"/>
	<path fill-rule="evenodd" clip-rule="evenodd" d="M90.698,77.639c3.139-0.385,5.323,0.96,7.6,2.1c2.544,1.273,5.161,2.695,7.8,4
		c2.405,1.189,4.529,1.956,5.8,4.2c0.935,1.649,1.376,4.214,2,6.3c0.743,2.483,1.078,5.887,3.3,6.6c1.793,0.575,5.732-0.6,7.7-0.9
		c1.968-0.3,6.444-1.437,6.7,1c0.282,2.691-3.238,3.167-5.7,3.701c-2.64,0.57-5.704,1.169-8.6,1.798
		c-1.552,0.338-3.131,1.021-4.5,0.4c-1.731-0.785-2.161-4.16-2.8-6.399c-0.389-1.361-1.184-6.19-2.801-6.4
		c-1.107-0.144-2.876,1.277-3.8,1.8c-2.654,1.503-4.469,2.555-7.1,4.1c-1.416,0.832-2.678,1.66-2.801,3.5
		c-0.094,1.402,0.98,3.677,1.4,4.9c1.133,3.293,2.225,5.777,3.5,9.1c0.474,1.232,1.774,3.67,1.3,4.701
		c-0.503,1.094-4.346,0.799-6.399,0.799c-4.326,0-9.379-0.1-14-0.1c-2.488,0-6.371,0.436-7.5-0.801
		c-0.893-0.975-1.043-4.398,0.1-5.299c1.305-1.027,5.977-0.5,8.8-0.5c1.886,0,7.704,0.557,8.2-1c0.391-1.223-0.932-3.209-1.4-4.201
		c-1.243-2.633-2.352-4.74-3.6-7.798c-0.491-1.204-1.489-3.122-1.3-4.4c0.174-1.178,2.17-2.729,3.3-3.5
		c2.691-1.837,5.439-3.339,8.4-5.1c1.02-0.607,3.675-1.652,3.7-3c0.024-1.333-1.631-1.844-2.4-2.3
		c-1.904-1.127-2.989-2.299-6.101-2.1c-2.356,0.15-5.005,1.164-7.199,1.7c-2.358,0.576-6,1.76-6.8,0.1
		c-0.72-1.494,0.456-2.992,1.6-3.6c1.345-0.714,3.146-0.889,4.4-1.2C84.851,79.006,87.77,77.998,90.698,77.639z"/>
	<path fill-rule="evenodd" clip-rule="evenodd" d="M91.397,125.139c0.037,0.889-0.906,1.432-1.5,1.898
		c-3.316,2.605-6.502,4.955-10,7.701c-2.022,1.588-4.398,4.387-6.7,1.299c-0.83-1.113-2.131-2.324-1.3-4.199
		c0.444-1,2.807-2.367,4-3.199c2.069-1.445,4.358-3.477,7.5-3.801c1.402-0.145,2.87,0,4.2,0
		C88.919,124.838,90.275,124.607,91.397,125.139z"/>
</g>
</svg>
