<?xml version="1.0" encoding="utf-8"?>
<!-- Generator: Adobe Illustrator 15.1.0, SVG Export Plug-In . SVG Version: 6.00 Build 0)  -->
<!DOCTYPE svg PUBLIC "-//W3C//DTD SVG 1.1//EN" "http://www.w3.org/Graphics/SVG/1.1/DTD/svg11.dtd">
<svg version="1.1" id="Layer_1" xmlns="http://www.w3.org/2000/svg" xmlns:xlink="http://www.w3.org/1999/xlink" x="0px" y="0px"
	 width="176px" height="208px" viewBox="0 0 176 208" enable-background="new 0 0 176 208" xml:space="preserve">
<path fill-rule="evenodd" clip-rule="evenodd" fill="#F9F9F9" stroke="#EDEDED" stroke-width="0.25" stroke-miterlimit="10" d="
	M118.471,126.143c0,2.762-2.238,5-5,5H27.916c-2.762,0-5-2.238-5-5V57.73c0-2.761,2.238-5,5-5h85.555c2.762,0,5,2.239,5,5V126.143z"
	/>
<path fill-rule="evenodd" clip-rule="evenodd" fill="#BB15F9" d="M46.589,73.102c0.522,0.001,0.974-0.066,1.522-0.039
	c-0.648-1.578-0.082-2.905,1.171-3.238c1.611-0.43,3.197,1.264,2.341,2.965c-0.167,0.332-0.463,0.49-0.663,0.858
	c0.667,0.517,1.463,0.904,2.146,1.405c0.51-0.449,0.893-1.036,1.092-1.834c0.214-0.856,0.182-1.667,0.742-2.185
	c1.216-1.125,3.254-0.354,3.473,1.092c0.171,1.136-0.549,2.136-1.405,2.38c-0.611,0.175-1.244,0.146-1.834,0.39
	c-0.527,0.218-0.899,0.489-1.327,0.859c0.459,0.764,0.963,1.482,1.405,2.263c0.553-0.498,0.976-1.053,2.029-0.976
	c2.443,0.18,2.413,4.02-0.039,4.058c-0.564,0.009-0.846-0.151-1.366-0.312c-0.069,0.577-0.163,1.901,0.351,2.224
	c0.428,0.27,1.553,0.493,2.107,0.547c0.25,0.024,0.507,0.02,0.742,0c0.884-0.078,1.563-0.658,2.341-0.664
	c0.822-0.006,1.595,0.564,1.873,1.17c0.95,2.069-1.705,3.894-3.278,2.419c-0.221-0.207-0.428-0.634-0.585-0.82
	c-0.522-0.62-1.373-1.094-2.38-1.366c-0.424-0.114-0.894-0.295-1.327-0.156c-0.522,0.168-0.742,0.789-1.015,1.249
	c-0.307,0.516-0.554,0.88-0.819,1.404c0.76,1.29,3.188,0.751,4.097,1.913c0.982,1.254,0.158,3.324-1.522,3.355
	c-0.694,0.014-1.28-0.285-1.6-0.624c-0.505-0.535-0.47-1.373-0.702-2.185c-0.223-0.779-0.549-1.321-1.054-1.795
	c-0.499,0.347-0.993,0.698-1.483,1.053c0.855,0.584,1.918,1.024,1.678,2.615c-0.314,2.077-3.75,2.207-4.059-0.04
	c-0.083-0.606,0.134-1.052,0.312-1.716c-0.869-0.011-1.935,0.121-2.926,0.117c-0.519,1.046-0.628,2.289-0.273,3.434
	c0.17,0.549,0.515,0.951,0.429,1.717c-0.224,1.995-3.086,2.315-3.902,0.663c-0.354-0.719-0.202-1.669,0.195-2.185
	c0.38-0.494,1.053-0.771,1.444-1.249c0.598-0.731,0.754-1.497,1.054-2.614c-1.316-0.402-2.437-0.998-3.356-1.795
	c-0.461,0.389-0.777,0.815-1.015,1.443c-0.308,0.814-0.207,1.787-0.663,2.38c-1.043,1.358-3.424,0.697-3.668-0.858
	c-0.156-0.999,0.267-1.642,0.664-1.99c0.697-0.612,1.973-0.467,2.849-0.898c0.421-0.207,0.652-0.45,1.015-0.742
	c-0.437-0.838-0.968-1.582-1.444-2.38c-0.677,0.665-1.004,1.591-2.263,1.6c-1.856,0.013-2.757-2.284-1.444-3.551
	c0.799-0.771,2.007-0.616,3.043-0.039c0.008-0.942,0.49-2.428-0.234-2.888c-0.318-0.202-0.836-0.244-1.132-0.312
	c-0.614-0.142-1.219-0.313-1.873-0.234c-0.662,0.08-1.133,0.5-1.834,0.625c-1.31,0.233-2.405-0.785-2.419-1.951
	c-0.021-1.737,2.075-2.877,3.434-1.639c0.433,0.396,0.464,0.691,0.78,1.015c0.511,0.524,1.385,0.983,2.38,1.249
	c0.369,0.098,0.799,0.209,1.132,0.117c0.85-0.235,1.022-1.6,1.561-2.225c-1.436-0.131-2.654-0.583-2.771-1.99
	c-0.085-1.034,0.6-2.067,1.639-2.224c1.775-0.269,2.521,1.09,2.575,2.77c0.846-0.455,1.794-1.145,2.966-1.404
	c-0.265-1.374-0.647-2.354-1.522-3.122c-0.507-0.445-1.2-0.76-1.327-1.6c-0.201-1.326,0.615-2.273,1.678-2.419
	c1.438-0.198,2.613,0.88,2.38,2.419c-0.074,0.489-0.474,0.978-0.585,1.6C45.927,71.299,46.222,72.297,46.589,73.102z"/>
<g>
	<path fill-rule="evenodd" clip-rule="evenodd" d="M93.922,58.317c0.24,0,0.48,0,0.721,0c4.162,0.272,6.557,5.114,4.32,8.55
		c-2.221,3.411-7.82,3.154-9.631-0.63C87.452,62.308,90.338,58.699,93.922,58.317z"/>
	<path fill-rule="evenodd" clip-rule="evenodd" d="M71.332,60.478c2.825-0.347,4.791,0.865,6.84,1.89
		c2.289,1.146,4.646,2.426,7.02,3.6c2.164,1.07,4.076,1.76,5.22,3.78c0.842,1.484,1.238,3.792,1.801,5.67
		c0.668,2.235,0.969,5.298,2.969,5.94c1.615,0.518,5.16-0.54,6.932-0.81c1.77-0.271,5.799-1.294,6.029,0.9
		c0.254,2.421-2.914,2.851-5.131,3.33c-2.375,0.514-5.133,1.054-7.738,1.62c-1.396,0.304-2.818,0.919-4.051,0.36
		c-1.559-0.707-1.945-3.745-2.519-5.76c-0.35-1.226-1.066-5.571-2.523-5.76c-0.996-0.13-2.586,1.149-3.418,1.62
		c-2.389,1.354-4.021,2.3-6.39,3.69c-1.274,0.749-2.409,1.493-2.52,3.15c-0.084,1.261,0.881,3.31,1.26,4.41
		c1.02,2.963,2.002,5.199,3.149,8.19c0.426,1.109,1.597,3.302,1.17,4.229c-0.453,0.986-3.911,0.721-5.76,0.721
		c-3.893,0-8.441-0.091-12.6-0.091c-2.24,0-5.734,0.392-6.75-0.72c-0.803-0.878-0.939-3.96,0.09-4.77
		c1.175-0.924,5.379-0.45,7.92-0.45c1.698,0,6.934,0.501,7.38-0.9c0.351-1.101-0.838-2.887-1.26-3.78
		c-1.118-2.371-2.117-4.266-3.24-7.02c-0.442-1.083-1.34-2.81-1.17-3.96c0.157-1.06,1.953-2.456,2.97-3.15
		c2.421-1.653,4.896-3.005,7.56-4.59c0.918-0.546,3.308-1.487,3.33-2.7c0.021-1.2-1.468-1.66-2.16-2.07
		c-1.714-1.015-2.69-2.069-5.49-1.89c-2.121,0.135-4.505,1.048-6.48,1.53c-2.122,0.518-5.4,1.584-6.12,0.09
		c-0.648-1.345,0.41-2.693,1.44-3.24c1.211-0.643,2.832-0.8,3.96-1.08C66.07,61.708,68.697,60.801,71.332,60.478z"/>
	<path fill-rule="evenodd" clip-rule="evenodd" d="M71.962,103.228c0.033,0.802-0.815,1.29-1.35,1.71
		c-2.985,2.344-5.853,4.459-9,6.93c-1.82,1.43-3.958,3.949-6.03,1.172c-0.747-1.002-1.918-2.094-1.17-3.781
		c0.399-0.9,2.526-2.129,3.6-2.879c1.862-1.301,3.922-3.129,6.75-3.421c1.261-0.131,2.583,0,3.78,0
		C69.731,102.958,70.952,102.751,71.962,103.228z"/>
</g>
<text transform="matrix(1 0 0 1 35.4604 127.0146)" fill="#A00010" font-family="'OstrichSansRounded-Medium'" font-size="14" letter-spacing="1">Virus Escape</text>
</svg>
